<?xml version="1.0" encoding="UTF-8" standalone="no"?> <!-- Created with Vectornator for iOS (http://vectornator.io/) --><!DOCTYPE svg PUBLIC "-//W3C//DTD SVG 1.1//EN" "http://www.w3.org/Graphics/SVG/1.1/DTD/svg11.dtd">
<svg style="fill-rule:evenodd;clip-rule:evenodd;stroke-linecap:round;stroke-linejoin:round;" xmlns:vectornator="http://vectornator.io" xmlns:xlink="http://www.w3.org/1999/xlink" xmlns="http://www.w3.org/2000/svg" xml:space="preserve" version="1.1" viewBox="0 0 32 32">
<metadata>
<vectornator:setting key="DisplayWhiteBackground" value="0"/>
<vectornator:setting key="RulersVisible" value="1"/>
<vectornator:setting key="SnapToEdges" value="0"/>
<vectornator:setting key="Units" value="Pixels"/>
<vectornator:setting key="New" value="1"/>
<vectornator:setting key="DynamicGuides" value="0"/>
<vectornator:setting key="SnapToPoints" value="0"/>
<vectornator:setting key="CMYKEnabledKey" value="0"/>
<vectornator:setting key="SnapToGrid" value="0"/>
<vectornator:setting key="SnapToGuides" value="1"/>
<vectornator:setting key="GridSpacing" value="36"/>
</metadata>
<defs/>
<g id="Layer 3" vectornator:layerName="Layer 3">
<path d="M-0.0163879-0.151412L31.9636-0.151412L31.9636+32.0867L-0.0163879+32.0867L-0.0163879-0.151412Z" opacity="1" fill="#ffffff"/>
</g>
<g id="Layer 1" vectornator:layerName="Layer 1">
<path stroke="#65b337" stroke-width="3" d="M12.3363+8.47933C11.1154+5.67517+6.31134+11.7852+6.13391+13.5136C5.39945+20.6676+10.738+22.8647+13.579+15.5082C14.1109+14.1308+11.182+10.8516+11.5017+8.27473L11.9928+7.2435C14.9594+4.05383+17.6415+9.81602+18.2451+12.0847C19.9778+18.598+11.7978+25.7276+5.95131+23.2488C-1.63584+20.0319+2.30212+8.76615+8.28375+6.07261C11.6119+4.57392+11.7532+7.00842+13.4223+7.17611" fill="#65b337" stroke-linecap="butt" opacity="1" stroke-linejoin="round"/>
</g>
<g id="Layer 2" vectornator:layerName="Layer 2">
<path d="M15.3285+4.035C14.7755+4.26945+14.2656+4.73554+13.7973+5.3475C13.6262+5.57111+13.6125+6.24323+13.516+6.69125L13.717+5.39089C13.7276+5.52058+13.4131+7.0607+13.4223+7.19125C12.9158+10.8557+13.9433+18.5968+14.9535+20.785C15.0284+20.9472+15.4607+22.0439+15.6098+22.3787C16.6178+24.6422+17.8962+25.8835+19.9848+25.3162C20.6888+25.125+21.0151+24.6201+21.1723+24.035C21.2429+23.7722+21.265+23.5088+21.266+23.1912C21.2674+22.7599+21.2283+22.2315+21.141+21.5975C21.1134+21.3965+20.8594+19.7407+20.8598+19.7537C20.7912+17.2927+20.0857+12.9675+19.1723+9.5975C19.2387+8.52783+19.1534+7.36917+18.8598+6.37875C18.5239+5.24563+17.9889+4.41283+17.0785+4.035C16.4736+3.78393+15.8816+3.80054+15.3285+4.035Z" opacity="1" fill="#f2e23d"/>
<path d="M26.4062+2.75C25.7245+2.77023+25.0058+3.09227+24.2812+3.59375C23.3767+4.21984+22.3702+5.20562+21.2812+6.5C19.6073+8.48974+17.672+11.3146+17.0938+12.5L18.8125+13.3438L19.6562+15.0312C19.839+14.9421+20.2954+14.2296+20.5+14.0312C20.6934+14.128+20.8738+14.2748+21.0938+14.2812C24.1805+14.372+30.4493+6.26667+28.25+3.625C27.7212+2.98989+27.088+2.72977+26.4062+2.75Z" opacity="1" fill="#f2e23d"/>
<path d="M19.9062+12.3125C19.7682+12.3211+19.6369+12.325+19.5+12.3438C19.0204+12.4096+18.6005+12.6966+18.375+13.125L18.1875+13.4688C17.9778+13.8671+17.9492+14.3356+18.125+14.75C18.3746+15.3384+18.7365+15.6963+19.0938+16.0625C20.631+19.2081+24.8311+23.1375+27.9375+24.0938C28.4756+24.2594+28.9264+24.1225+29.375+23.9062C29.48+23.9733+29.4856+24.1024+29.625+24.1562C30.5088+24.4973+31.2044+24.1293+31.75+23.4688C32.5186+22.5382+32.4232+21.4399+31.8438+20.4062C31.5627+19.9049+31.1806+19.4007+30.6875+18.9062C30.4931+18.7113+30.2827+18.5398+30.0625+18.3438C29.9812+18.2713+29.7072+18.0086+29.625+17.9375C29.2678+17.627+27.7558+16.2479+27.4062+15.9375C24.5363+13.3888+22.3645+12.1596+19.9062+12.3125Z" opacity="1" fill="#f2e23d"/>
</g>
</svg>
