<?xml version="1.0" encoding="UTF-8" standalone="no"?> <!-- Created with Vectornator for iOS (http://vectornator.io/) --><!DOCTYPE svg PUBLIC "-//W3C//DTD SVG 1.1//EN" "http://www.w3.org/Graphics/SVG/1.1/DTD/svg11.dtd">
<svg style="fill-rule:evenodd;clip-rule:evenodd;stroke-linecap:round;stroke-linejoin:round;" xmlns:vectornator="http://vectornator.io" xmlns:xlink="http://www.w3.org/1999/xlink" xmlns="http://www.w3.org/2000/svg" xml:space="preserve" version="1.1" viewBox="0 0 32 32">
<metadata>
<vectornator:setting key="DisplayWhiteBackground" value="0"/>
<vectornator:setting key="RulersVisible" value="1"/>
<vectornator:setting key="SnapToEdges" value="0"/>
<vectornator:setting key="Units" value="Pixels"/>
<vectornator:setting key="New" value="1"/>
<vectornator:setting key="DynamicGuides" value="0"/>
<vectornator:setting key="SnapToPoints" value="0"/>
<vectornator:setting key="SnapToGrid" value="0"/>
<vectornator:setting key="SnapToGuides" value="1"/>
<vectornator:setting key="IsolateActiveLayer" value="0"/>
<vectornator:setting key="GridSpacing" value="36"/>
</metadata>
<defs/>
<g id="Layer 1" vectornator:layerName="Layer 1">
<path stroke="#f2e23d" stroke-width="8.89" d="M1.00467+16.1013C1.00467+7.83263+7.76769+1.12955+16.1103+1.12955C24.4529+1.12955+31.2159+7.83263+31.2159+16.1013C31.2159+24.37+24.4529+31.0731+16.1103+31.0731C7.76769+31.0731+1.00467+24.37+1.00467+16.1013Z" fill="#ffffff" stroke-linecap="square" opacity="1" stroke-linejoin="round"/>
</g>
<g id="Layer 2" vectornator:layerName="Layer 2">
<path stroke="#65b337" stroke-width="3.43" d="M10.1481+6.03019C10.516+5.89569+9.64453+6.03728+9.19162+6.20721C7.83331+6.71687+7.20796+7.64672+6.6+9.00239C5.81555+10.7516+5.29916+16.9907+8.87693+16.5238C10.209+16.3499+12.1392+10.9624+11.8307+9.31597C11.7891+9.09415+9.98147+4.58233+9.98147+4.58233C11.892+2.61225+14.7824+5.21062+15.5913+7.00182C17.5136+11.2587+13.9331+20.837+8.12881+19.8499C0.962451+18.6311+2.54949+8.20086+6.29039+4.47735C7.97547+2.80011+11.4807+2.72793+12.4774+5.0868" fill="#65b337" stroke-linecap="butt" opacity="1" stroke-linejoin="round"/>
<path stroke="#65b337" stroke-width="2.82" d="M13.3455+16.2061C14.2758+13.7304+15.4633+9.30532+13.9427+6.82551C12.1667+3.92913+7.37423+4.53487+5.65017+7.82516C3.8971+11.1708+3.03105+21.6887+9.59416+19.1668C11.4339+18.4599+12.8788+15.5405+13.9332+14.1375L14.7743+14.287C16.1077+19.1107+10.792+24.3643+5.77338+22.0112C-1.04935+18.8123+0.723759+6.97365+6.45858+3.36562C14.906-1.94902+20.5473+10.8813+14.8698+17.1163" fill="#65b337" stroke-linecap="butt" opacity="1" stroke-linejoin="round"/>
</g>
<g id="Layer 3" vectornator:layerName="Layer 3">
<path stroke="#65b337" stroke-width="2.67" d="M17.0818+27.8546C17.4503+27.3583+16.3849+27.5202+16.3521+27.5174C15.9249+27.4815+16.1482+24.8101+16.1958+24.4696C16.6367+21.317+17.9464+9.5431+20.597+7.91837C23.2257+6.30709+23.5642+12.5424+23.68+13.8436C24.0239+17.705+22.3717+27.1544+18.3236+29.1746C14.8753+30.8954+16.5704+23.6353+16.9397+22.5079C17.4658+20.902+18.0967+19.4759+18.8757+17.9903C20.008+15.8307+20.004+12.8609+21.0317+10.88L21.3936+10.9101C21.5805+11.5108+20.5175+12.9217+20.409+13.5114C19.806+16.7895+20.0985+19.7912+19.113+23.0604C18.714+24.3842+19.6341+26.6093+18.3569+27.1388C17.966+27.3009+16.6931+27.3494+17.0889+27.1996C19.8713+26.1464+20.4061+18.0599+20.7341+15.7706C20.9919+13.9715+21.322+11.918+20.9965+10.1137C20.9296+9.74243+21.9991+9.27317+21.6339+9.17856C20.9159+8.99252+20.0851+13.5387+20.0027+13.9446C19.319+17.3131+18.5904+20.6286+18.1452+24.0368C18.0383+24.8554+16.1823+30.349+16.4029+28.0809" fill="#65b337" stroke-linecap="butt" opacity="1" stroke-linejoin="round"/>
<path stroke="#65b337" stroke-width="2.67" d="M22.6261+17.4241C24.0032+15.2025+21.8784+14.224+22.8771+13.7009C23.8758+13.1778+29.1546+8.70748+29.1546+8.70748C30.186+9.39944+30.6722+9.87635+30.2008+11.2755C29.2493+14.0998+25.5307+17.5581+24.3646+18.728" fill="#65b337" stroke-linecap="butt" opacity="1" stroke-linejoin="round"/>
<path stroke="#65b337" stroke-width="2.67" d="M24.1827+20.4155C27.3666+25.9173+26.5967+23.6695+28.2034+29.8225C24.8849+26.698+23.9577+25.1287+23.4655+20.5976C25.7869+22.0951+24.9785+22.9511+27.2999+24.4486C24.8428+25.2895+26.9076+24.2699+24.3413+24.098C24.5514+21.4871+24.8546+21.2577+25.0647+18.6467C27.3955+22.5588+29.6194+25.5948+30.1532+29.7274C23.7389+32.2907+21.3537+20.6+24.6295+17.1472C27.0772+20.4111+26.6185+22.4939+25.4292+26.2495C22.4514+22.9106+23.5747+24.8277+22.127+20.459" fill="#65b337" stroke-linecap="butt" opacity="1" stroke-linejoin="round"/>
</g>
</svg>
