<?xml version="1.0" encoding="UTF-8" standalone="no"?> <!-- Created with Vectornator for iOS (http://vectornator.io/) --><!DOCTYPE svg PUBLIC "-//W3C//DTD SVG 1.1//EN" "http://www.w3.org/Graphics/SVG/1.1/DTD/svg11.dtd">
<svg style="fill-rule:evenodd;clip-rule:evenodd;stroke-linecap:round;stroke-linejoin:round;" xmlns:vectornator="http://vectornator.io" xmlns:xlink="http://www.w3.org/1999/xlink" xmlns="http://www.w3.org/2000/svg" xml:space="preserve" version="1.1" viewBox="0 0 32 32">
<metadata>
<vectornator:setting key="IsolateActiveLayer" value="0"/>
<vectornator:setting key="Units" value="Pixels"/>
<vectornator:setting key="SnapToPoints" value="0"/>
<vectornator:setting key="OutlineMode" value="0"/>
<vectornator:setting key="RulersVisible" value="1"/>
<vectornator:setting key="CMYKEnabledKey" value="0"/>
<vectornator:setting key="SnapToEdges" value="0"/>
<vectornator:setting key="DisplayWhiteBackground" value="0"/>
<vectornator:setting key="SnapToGuides" value="1"/>
<vectornator:setting key="GridSpacing" value="36"/>
<vectornator:setting key="DynamicGuides" value="0"/>
<vectornator:setting key="SnapToGrid" value="0"/>
<vectornator:setting key="New" value="1"/>
</metadata>
<defs/>
<g id="Layer 3" vectornator:layerName="Layer 3">
<path stroke="#ffffff" stroke-width="3.43" d="M8.65029+11.891C8.79918+11.9192+8.94808+11.9474+9.09697+11.9756L9.81909+10.8925C9.98078+10.9335+10.1425+10.9745+10.3041+11.0155" fill="#ffffff" stroke-linecap="butt" opacity="1" stroke-linejoin="round"/>
<path stroke="#ffffff" stroke-width="3.43" d="M9.67548+11.8903C8.88131+12.127+8.91143+14.6705+8.85593+15.4528C8.82078+15.9484+9.44297+17.2227+9.04039+16.9317C8.27332+16.3771+9.63153+16.5696+9.84106+15.9165C10.1793+14.8623+10.1085+13.8313+10.8107+12.8759L11.2516+12.7932C13.2459+14.2735+12.0347+18.1137+9.85424+18.7935C9.1284+19.0197+7.76429+18.8576+7.17073+18.3141C4.74462+16.0927+7.84639+12.5905+8.93363+10.9011" fill="#ffffff" stroke-linecap="butt" opacity="1" stroke-linejoin="round"/>
<path stroke="#ffffff" stroke-width="3.43" d="M6.73588+5.7678C6.86529+5.86217+5.75648+6.79043+5.52491+7.01483C4.835+7.68338+4.11374+8.81691+3.5737+9.66532C2.30057+11.6655+1.40623+16.2369+3.01851+18.2709C4.69209+20.3821+4.79621+22.3696+8.01918+21.8898C8.9966+21.7443+9.79966+21.8678+10.6609+21.2716C11.6691+20.5738+11.8985+19.227+12.7276+18.5331C13.2878+18.0642+14.45+18.5837+14.9708+17.942L15.0724+17.9717C15.2293+18.8335+16.2542+19.418+16.2028+20.335C16.1517+21.2463+15.1006+22.2373+14.5303+22.8683C11.7673+25.9251+7.58593+26.6397+3.79396+24.8231C-0.502441+22.7647-1.25952+13.8623+0.992101+10.1491C1.96642+8.54225+4.38374+4.87395+6.61664+5.05234" fill="#ffffff" stroke-linecap="butt" opacity="1" stroke-linejoin="round"/>
<path stroke="#ffffff" stroke-width="3.43" d="M-0.410612+13.7229C-0.146161+8.64488+3.51657+5.20428+7.50654+3.52399C9.68656+2.60593+13.7571+3.57829+14.4886+6.17753C14.6406+6.7179+13.8598+7.54126+13.7077+7.98595L12.959+8.39774C12.1466+8.33079+11.8171+8.74111+11.027+8.40281C10.148+8.02643+10.0504+6.71966+8.84672+6.65087C4.81355+6.42035+2.15759+10.6846+0.0652887+13.8263" fill="#ffffff" stroke-linecap="butt" opacity="1" stroke-linejoin="round"/>
<path stroke="#ffffff" stroke-width="3.43" d="M15.4879+20.6134C16.0249+20.7048+17.3349+22.1113+17.6463+22.7049C17.7587+22.9192+18.1276+23.5178+18.0915+23.2785C18.0332+22.8923+17.592+22.8262+18.4693+22.9982C18.5178+23.0077+18.8221+23.0711+18.8156+23.1554C18.7993+23.3679+18.1663+23.2623+18.1849+23.0499C18.2111+22.7486+19.1689+21.6197+18.6476+22.1564C18.4564+22.3532+18.6598+21.6072+18.6431+21.3333C18.6037+20.6878+18.3078+20.7654+18.6568+19.8337C19.0389+18.8135+19.5158+17.9332+20.0059+16.9592L20.704+16.9592C21.3372+18.2559+22.7767+19.1417+22.9145+20.6083C23.5438+27.3063+15.0078+29.0546+15.0329+22.566C15.0358+21.8411+14.3375+21.4648+14.7854+20.672" fill="#ffffff" stroke-linecap="butt" opacity="1" stroke-linejoin="round"/>
<path stroke="#ffffff" stroke-width="3.43" d="M17.9613+12.0096C17.0064+11.6089+18.5041+8.68084+18.7421+8.09605C19.5759+6.04744+23.9295+3.59514+26.1589+4.07594C31.2019+5.1635+27.5488+12.678+24.4717+13.9605C23.8941+14.2012+23.7057+13.6493+23.2416+13.6355L22.8399+12.9928C22.165+10.3167+26.1065+9.6414+26.1183+7.05862C26.1288+4.76348+19.5066+11.5507+18.4128+12.0096" fill="#ffffff" stroke-linecap="butt" opacity="1" stroke-linejoin="round"/>
<path stroke="#ffffff" stroke-width="3.43" d="M13.6397+6.04308C12.2522+4.60072+19.2025+1.00168+18.9889+6.41892C18.9662+6.99436+18.7237+7.69053+18.429+8.20809L17.8684+8.25235C17.6723+8.01696+16.687+5.76993+17.146+5.79419C17.445+5.80999+16.4577+5.64389+16.3587+5.36125C16.2908+5.1674+15.6093+5.47595+13.9095+6.08162" fill="#ffffff" stroke-linecap="butt" opacity="1" stroke-linejoin="round"/>
<path stroke="#ffffff" stroke-width="3.43" d="M24.1605+21.9082C24.0031+21.6145+29.644+26.0581+30.2022+23.5327C30.6701+21.4156+25.5979+17.6981+25.5182+14.745L26.0222+14.493C27.748+15.6786+32.9824+20.4561+31.8896+23.4097C29.8829+28.8331+24.8203+23.6409+23.8098+22.2589" fill="#ffffff" stroke-linecap="butt" opacity="1" stroke-linejoin="round"/>
</g>
<g id="Layer 1" vectornator:layerName="Layer 1">
<path stroke="#65b337" stroke-width="3" d="M12.3363+8.47933C11.1154+5.67517+6.31134+11.7852+6.13391+13.5136C5.39945+20.6676+10.738+22.8647+13.579+15.5082C14.1109+14.1308+11.182+10.8516+11.5017+8.27473L11.9928+7.2435C14.9594+4.05383+17.6415+9.81602+18.2451+12.0847C19.9778+18.598+11.7978+25.7276+5.95131+23.2488C-1.63584+20.0319+2.30212+8.76615+8.28375+6.07261C11.6119+4.57392+11.7532+7.00842+13.4223+7.17611" fill="#65b337" stroke-linecap="butt" opacity="1" stroke-linejoin="round"/>
</g>
<g id="Layer 2" vectornator:layerName="Layer 2">
<path d="M15.3285+4.035C14.7755+4.26945+14.2656+4.73554+13.7973+5.3475C13.6262+5.57111+13.6125+6.24323+13.516+6.69125L13.717+5.39089C13.7276+5.52058+13.4131+7.0607+13.4223+7.19125C12.9158+10.8557+13.9433+18.5968+14.9535+20.785C15.0284+20.9472+15.4607+22.0439+15.6098+22.3787C16.6178+24.6422+17.8962+25.8835+19.9848+25.3162C20.6888+25.125+21.0151+24.6201+21.1723+24.035C21.2429+23.7722+21.265+23.5088+21.266+23.1912C21.2674+22.7599+21.2283+22.2315+21.141+21.5975C21.1134+21.3965+20.8594+19.7407+20.8598+19.7537C20.7912+17.2927+20.0857+12.9675+19.1723+9.5975C19.2387+8.52783+19.1534+7.36917+18.8598+6.37875C18.5239+5.24563+17.9889+4.41283+17.0785+4.035C16.4736+3.78393+15.8816+3.80054+15.3285+4.035Z" opacity="1" fill="#f2e23d"/>
<path d="M26.4062+2.75C25.7245+2.77023+25.0058+3.09227+24.2812+3.59375C23.3767+4.21984+22.3702+5.20562+21.2812+6.5C19.6073+8.48974+17.672+11.3146+17.0938+12.5L18.8125+13.3438L19.6562+15.0312C19.839+14.9421+20.2954+14.2296+20.5+14.0312C20.6934+14.128+20.8738+14.2748+21.0938+14.2812C24.1805+14.372+30.4493+6.26667+28.25+3.625C27.7212+2.98989+27.088+2.72977+26.4062+2.75Z" opacity="1" fill="#f2e23d"/>
<path d="M19.9062+12.3125C19.7682+12.3211+19.6369+12.325+19.5+12.3438C19.0204+12.4096+18.6005+12.6966+18.375+13.125L18.1875+13.4688C17.9778+13.8671+17.9492+14.3356+18.125+14.75C18.3746+15.3384+18.7365+15.6963+19.0938+16.0625C20.631+19.2081+24.8311+23.1375+27.9375+24.0938C28.4756+24.2594+28.9264+24.1225+29.375+23.9062C29.48+23.9733+29.4856+24.1024+29.625+24.1562C30.5088+24.4973+31.2044+24.1293+31.75+23.4688C32.5186+22.5382+32.4232+21.4399+31.8438+20.4062C31.5627+19.9049+31.1806+19.4007+30.6875+18.9062C30.4931+18.7113+30.2827+18.5398+30.0625+18.3438C29.9812+18.2713+29.7072+18.0086+29.625+17.9375C29.2678+17.627+27.7558+16.2479+27.4062+15.9375C24.5363+13.3888+22.3645+12.1596+19.9062+12.3125Z" opacity="1" fill="#f2e23d"/>
<path stroke="#f2e23d" stroke-width="0.15" d="M27.89+23.7924C28.0865+23.8406+30.2215+24.0356+30.2203+24.0721C30.2168+24.1785+29.9376+24.1443+29.8864+24.1589C28.9998+24.4126+27.6198+23.9305+26.994+23.3776L27.0088+23.3539C27.6932+23.7318+28.3446+23.8882+29.0985+23.9392C29.3298+23.9549+29.5616+24.0026+29.7941+24.0012C29.9028+24.0005+30.1845+23.8958+30.1195+23.9829C29.9052+24.2699+28.3513+24.1755+27.8752+23.8764" fill="#f2e23d" stroke-linecap="butt" opacity="1" stroke-linejoin="round"/>
<path stroke="#f2e23d" stroke-width="0.15" d="M30.2137+24.2299C29.2329+24.6069+27.4671+23.9147+26.7186+23.4215L26.7197+23.4191C27.9412+23.8015+28.9867+24.0077+30.2286+24.1662" fill="#f2e23d" stroke-linecap="butt" opacity="1" stroke-linejoin="round"/>
<path stroke="#f2e23d" stroke-width="0.15" d="M29.2558+24.1238C30.1288+24.2143+30.6596+24.169+31.4077+23.616L31.4301+23.6433C30.8168+24.4194+30.0804+24.3015+29.2513+24.1768" fill="#f2e23d" stroke-linecap="butt" opacity="1" stroke-linejoin="round"/>
<path stroke="#f2e23d" stroke-width="0.15" d="" fill="#f2e23d" stroke-linecap="butt" opacity="1" stroke-linejoin="round"/>
<path stroke="#f2e23d" stroke-width="0.15" d="M29.7707+24.3198C29.8342+24.2452+30.412+24.2078+30.5582+24.1577L30.561+24.1635C30.3597+24.3148+30.0357+24.3848+29.7702+24.3057" fill="#f2e23d" stroke-linecap="butt" opacity="1" stroke-linejoin="round"/>
</g>
</svg>
